:version 1.10
:name ASF
:units
  mass 1
  length 1
  angle deg
:documentation
  ASF file generated by Kaydara
:root
  axis xyz
  order  tx ty tz rx ry rz
  position 0 0 0
  orientation 0 0 0
:bonedata
  begin
    id 1
    name RightUpLegDummy
    direction -0.718183 -0.695806 0.00816078
    length 4.904
    axis 0 0 0 xyz
  end
  begin
    id 2
    name RightUpLeg
    direction 3.53989e-006 -0.995788 0.0916897
    length 17.4976
    axis -3.49089 -0.000906621 0.000287158 xyz
    dof rx ry rz
  end
  begin
    id 3
    name RightLeg
    direction 0.00371093 -0.995096 -0.0988418
    length 16.5821
    axis 3.68512 0.0193738 -0.131023 xyz
    dof rx ry rz
  end
  begin
    id 4
    name RightFoot
    direction 0.000791514 -0.46099 0.887405
    length 3.77069
    axis 4.84075e-005 -0.120479 -0.188788 xyz
    dof rx ry rz
  end
  begin
    id 5
    name RightToes
    direction 0.00124746 -0.014064 0.9999
    length 3.85082
    axis 0.00048216 0.542163 -0.142577 xyz
    dof rx ry rz
  end
  begin
    id 6
    name SpineDummy
    direction 8.3039e-015 1 4.57515e-016
    length 4.6813
    axis 0 0 0 xyz
  end
  begin
    id 7
    name Spine
    direction -4.63632e-008 0.999988 0.00495137
    length 10.1015
    axis -0.00138897 0.000121419 3.25764e-006 xyz
    dof rx ry rz
  end
  begin
    id 8
    name Spine1
    direction 0 0 0
    length 0
    axis -0.00138896 0.000121452 2.39764e-006 xyz
    dof rx ry rz
  end
  begin
    id 9
    name HEadDummy
    direction -3.91456e-008 0.999999 0.00127422
    length 3.43865
    axis -0.00138896 0.000121452 2.39764e-006 xyz
  end
  begin
    id 10
    name HEad
    direction -0.0222688 0.980941 0.193023
    length 5.12695
    axis -0.00138895 0.000121452 2.39764e-006 xyz
    dof rx ry rz
  end
  begin
    id 11
    name LeftShoulder1Dummy
    direction 0.998891 -0.0402508 -0.0244456
    length 3.5433
    axis -0.00138896 0.000121452 2.39764e-006 xyz
  end
  begin
    id 12
    name LeftShoulder1
    direction 0.99951 -0.000327743 0.0313091
    length 4.05031
    axis -0.00138896 0.000121452 2.39764e-006 xyz
    dof rx ry rz
  end
  begin
    id 13
    name LeftArm
    direction 0.998561 -0.00100054 -0.0536182
    length 10.3537
    axis -23.1894 0.134784 0.96751 xyz
    dof rx ry rz
  end
  begin
    id 14
    name LeftForeArm
    direction 0.998903 0.00866434 0.046012
    length 8.70632
    axis -9.91835 -0.06569 -0.177792 xyz
    dof rx ry rz
  end
  begin
    id 15
    name LeftHand
    direction 0.992938 -0.0411636 0.11126
    length 5.32135
    axis -0.00960227 -0.00340091 0.185174 xyz
    dof rx ry rz
  end
  begin
    id 16
    name RightShoulderDummy
    direction -0.998891 -0.0402509 -0.0244414
    length 3.5433
    axis -0.00138896 0.000121452 2.39764e-006 xyz
  end
  begin
    id 17
    name RightShoulder
    direction -0.99951 -0.000327827 0.0313133
    length 4.05031
    axis 0.215806 0.000203644 -0.00680151 xyz
    dof rx ry rz
  end
  begin
    id 18
    name RightArm
    direction -0.998573 -0.000999583 -0.053403
    length 10.3947
    axis -23.2009 -0.134239 -0.9641 xyz
    dof rx ry rz
  end
  begin
    id 19
    name RightForeArm
    direction -0.998898 0.00868026 0.0461306
    length 8.68355
    axis -9.92322 0.0658061 0.178869 xyz
    dof rx ry rz
  end
  begin
    id 20
    name RightHand
    direction -0.992843 -0.0414603 0.112003
    length 5.28593
    axis -0.00960634 0.00330671 -0.185226 xyz
    dof rx ry rz
  end
  begin
    id 21
    name LeftUpLegDummy
    direction 0.718183 -0.695806 0.00816078
    length 4.904
    axis 0 0 0 xyz
  end
  begin
    id 22
    name LeftUpLeg
    direction -6.8115e-006 -0.995793 0.0916336
    length 17.4976
    axis -3.48766 0.00143441 -0.000523914 xyz
    dof rx ry rz
  end
  begin
    id 23
    name LeftLeg
    direction -0.00601357 -0.995091 -0.0987824
    length 16.5821
    axis 3.68177 -0.00654038 -0.00028478 xyz
    dof rx ry rz
  end
  begin
    id 24
    name LeftFoot
    direction -0.00417578 -0.460984 0.887399
    length 3.77069
    axis 1.87232e-006 4.66002e-005 -8.1837e-006 xyz
    dof rx ry rz
  end
  begin
    id 25
    name LeftToes
    direction 0.00818058 -0.00485161 0.999955
    length 3.85048
    axis 1.06246e-005 4.65855e-005 -8.18502e-006 xyz
    dof rx ry rz
  end
:hierarchy
  begin
    root RightUpLegDummy SpineDummy LeftUpLegDummy
    RightUpLegDummy RightUpLeg
    RightUpLeg RightLeg
    RightLeg RightFoot
    RightFoot RightToes
    SpineDummy Spine
    Spine Spine1
    Spine1 HEadDummy LeftShoulder1Dummy RightShoulderDummy
    HEadDummy HEad
    LeftShoulder1Dummy LeftShoulder1
    LeftShoulder1 LeftArm
    LeftArm LeftForeArm
    LeftForeArm LeftHand
    RightShoulderDummy RightShoulder
    RightShoulder RightArm
    RightArm RightForeArm
    RightForeArm RightHand
    LeftUpLegDummy LeftUpLeg
    LeftUpLeg LeftLeg
    LeftLeg LeftFoot
    LeftFoot LeftToes
  end

:SAMPLES-PER-SECOND 30
:FRAME-RANGE 1-4244
:FULLY-SPECIFIED
:DEGREES
1
root  49.6974 39.2414 -34.2333 -178.946 -5.87515 175.87
RightUpLeg  3.38699 -3.23379 -11.1006
RightLeg  34.3178 1.13064 0.585135
RightFoot  -13.3483 0.231025 18.2551
RightToes  -1.33073e-015 0 -3.6325e-017
Spine  -13.9912 2.2881 1.46997
Spine1  17.2332 4.61823 -9.21751
HEad  70.4315 8.71031 8.55528
LeftShoulder1  -0.103436 3.68864 -20.6292
LeftArm  -6.96597 26.9417 -49.1718
LeftForeArm  34.7246 4.30647 -11.69
LeftHand  -0.0184829 5.18901 3.24207
RightShoulder  1.71553 3.35975 19.5123
RightArm  4.7787 21.1767 70.8014
RightForeArm  131.785 77.5018 127.995
RightHand  -0.0313962 -5.66125 2.22088
LeftUpLeg  -17.0255 -1.49346 -5.69061
LeftLeg  11.0284 8.70893 2.53331
LeftFoot  3.25217 0.103706 -0.964097
LeftToes  2.72522e-012 8.43823e-011 6.24977e-012
2
root  49.2612 39.2574 -35.0039 -179.082 -5.54491 175.358
RightUpLeg  -0.297832 -5.05506 -13.6319
RightLeg  42.6386 2.95617 2.62846
RightFoot  -8.91648 -0.444461 17.9785
RightToes  -1.33073e-015 0 -3.6325e-017
Spine  -13.7633 2.14243 0.609953
Spine1  16.8109 4.34071 -9.1425
HEad  69.5492 10.3052 8.63941
LeftShoulder1  -0.0214328 3.38324 -20.6964
LeftArm  -6.80128 26.5327 -49.411
LeftForeArm  34.5906 4.11587 -11.757
LeftHand  -0.0187169 5.17669 3.20922
RightShoulder  1.71522 3.39218 19.2655
RightArm  4.38954 21.5554 70.373
RightForeArm  133.93 77.0457 130.485
RightHand  -0.0315767 -5.66669 2.19803
LeftUpLeg  -15.8737 -1.10284 -6.66216
LeftLeg  11.8226 8.67758 2.15105
LeftFoot  1.84924 -0.0437937 0.282013
LeftToes  2.72522e-012 8.43823e-011 6.24977e-012
3
root  48.8541 39.2718 -35.7655 -179.446 -5.25215 174.903
RightUpLeg  -4.2036 -6.09183 -15.3376
RightLeg  50.4718 2.46029 2.84875
RightFoot  -3.57224 -0.994971 14.2246
RightToes  -1.33073e-015 0 -3.6325e-017
Spine  -13.2712 1.96227 0.032624
Spine1  16.2392 4.10481 -9.22634
HEad  68.7684 11.599 8.81618
LeftShoulder1  0.0699186 3.04437 -20.7477
LeftArm  -6.30947 25.2175 -49.3767
LeftForeArm  34.7796 4.23226 -11.8918
LeftHand  -0.0226966 5.31328 3.03646
RightShoulder  1.71525 3.36924 19.2905
RightArm  3.85651 21.7431 70.219
RightForeArm  135.189 76.6682 132.263
RightHand  -0.0285568 -5.50532 2.23739
LeftUpLeg  -14.413 -1.00786 -7.67179
LeftLeg  12.4638 8.9035 2.13638
LeftFoot  0.408186 -0.153732 1.47027
LeftToes  2.72522e-012 8.43823e-011 6.24977e-012
4
root  48.5223 39.2128 -36.4694 -179.841 -5.15327 174.45
RightUpLeg  -7.45688 -6.48612 -16.3322
RightLeg  55.9899 1.21949 1.53345
RightFoot  -1.46737 -0.954381 10.9013
RightToes  -1.33073e-015 0 -3.6325e-017
Spine  -12.7516 1.76465 -0.748783
Spine1  15.9419 3.84489 -9.42821
HEad  68.5307 12.5408 9.13239
LeftShoulder1  0.13327 2.81281 -20.9469
LeftArm  -5.46416 22.7571 -48.9201
LeftForeArm  35.5116 4.76128 -12.0616
LeftHand  -0.0204208 5.31318 3.22503
RightShoulder  1.71188 3.31965 19.4421
RightArm  3.10898 21.3546 70.0727
RightForeArm  136.295 76.2144 134.157
RightHand  -0.0243058 -5.22958 2.10735
LeftUpLeg  -13.4028 -0.779521 -8.57693
LeftLeg  13.8945 8.80833 2.17368
LeftFoot  -1.51868 -0.166518 2.04472
LeftToes  2.72522e-012 8.43823e-011 6.24977e-012
5
root  48.2301 39.1863 -37.1522 179.774 -5.60817 174.352
RightUpLeg  -9.6412 -6.55217 -16.4769
RightLeg  58.5377 -0.0144983 -0.480976
RightFoot  -3.33033 -0.739685 10.2125
RightToes  -1.33073e-015 0 -3.6325e-017
Spine  -12.3405 1.39986 -1.40389
Spine1  15.7225 3.31769 -9.26184
HEad  68.7244 13.074 9.44668
LeftShoulder1  0.14887 2.76012 -21.2013
LeftArm  -4.56895 19.7162 -48.3023
LeftForeArm  35.8105 4.98555 -12.2101
LeftHand  -0.0205041 5.32242 3.22885
RightShoulder  1.7107 3.25576 19.6928
RightArm  2.12469 20.3103 69.487
RightForeArm  136.948 75.6408 136.198
RightHand  -0.016674 -4.81145 2.33332
LeftUpLeg  -12.2768 -0.732155 -9.2371
LeftLeg  14.9928 8.42931 2.38348
LeftFoot  -3.24058 -0.147044 2.35273
LeftToes  2.72522e-012 8.43823e-011 6.24977e-012
6
root  47.9625 39.2087 -37.83 179.458 -6.45181 174.748
RightUpLeg  -11.3327 -6.20162 -15.5656
RightLeg  58.3898 -1.28195 -2.70402
RightFoot  -5.10571 -0.508897 8.68685
RightToes  -1.33073e-015 0 -3.6325e-017
Spine  -12.0951 1.00424 -1.59644
Spine1  15.4798 2.71084 -8.73332
HEad  69.1713 13.1961 9.58527
LeftShoulder1  0.179256 2.65101 -21.2845
LeftArm  -3.72332 16.4049 -48.0077
LeftForeArm  35.5057 4.79851 -12.3792
LeftHand  -0.0230156 5.51483 3.24993
RightShoulder  1.66843 3.00047 20.1008
RightArm  1.15631 18.4721 68.4938
RightForeArm  138.148 75.165 137.892
RightHand  -0.0105054 -4.48903 2.55536
LeftUpLeg  -11.1104 -0.459167 -9.30627
LeftLeg  15.7347 7.55293 2.29648
LeftFoot  -4.73731 -0.138213 2.89037
LeftToes  2.72522e-012 8.43823e-011 6.24977e-012
7
root  47.7345 39.232 -38.4713 179.278 -7.60182 175.312
RightUpLeg  -12.6839 -5.11178 -14.1219
RightLeg  55.9253 -2.7008 -4.70633
RightFoot  -7.51324 -0.318938 7.99924
RightToes  -1.33073e-015 0 -3.6325e-017
Spine  -11.8724 0.509312 -1.86156
Spine1  15.1766 1.97901 -7.91998
HEad  69.2029 13.4296 9.46313
LeftShoulder1  0.217696 2.5037 -21.0174
LeftArm  -3.4498 12.998 -48.2884
LeftForeArm  35.4039 4.55442 -12.3367
LeftHand  -0.0242645 5.44427 3.49239
RightShoulder  1.61688 2.70267 20.5797
RightArm  0.798857 16.203 66.8237
RightForeArm  135.751 75.46 136.516
RightHand  -0.0098017 -4.46205 2.53595
LeftUpLeg  -10.1758 -0.190631 -9.11249
LeftLeg  16.4785 6.28891 2.09706
LeftFoot  -6.0586 -0.12533 3.50732
LeftToes  2.72522e-012 8.43823e-011 6.24977e-012
8
root  47.5387 39.2673 -39.091 179.091 -8.57806 175.95
RightUpLeg  -13.8272 -3.02809 -12.3249
RightLeg  51.7264 -4.93169 -7.02834
RightFoot  -9.32484 -0.201669 7.84083
RightToes  -1.33073e-015 0 -3.6325e-017
Spine  -11.5936 0.0785492 -2.0447
Spine1  14.8718 1.3551 -7.08343
HEad  68.8555 13.8128 9.33816
LeftShoulder1  0.294142 2.21272 -20.7532
LeftArm  -2.84795 9.7809 -48.5027
LeftForeArm  34.6759 3.74181 -12.3794
LeftHand  -0.0264129 5.3553 3.60872
RightShoulder  1.57448 2.43264 21.1372
RightArm  1.05763 13.8988 64.7561
RightForeArm  128.765 77.0536 129.169
RightHand  -0.0109451 -4.49957 2.40774
LeftUpLeg  -9.18931 -0.0482592 -8.81801
LeftLeg  16.9827 5.31307 2.10614
LeftFoot  -7.17215 -0.0974023 3.86166
LeftToes  2.72522e-012 8.43823e-011 6.24977e-012
9
root  47.3609 39.3311 -39.7141 178.916 -9.3577 176.652
RightUpLeg  -14.8846 -0.359419 -10.4982
RightLeg  46.5152 -7.38556 -8.56442
RightFoot  -9.5921 -0.178926 7.43505
RightToes  -1.33073e-015 0 -3.6325e-017
Spine  -11.4184 -0.343599 -2.03381
Spine1  14.6655 0.799827 -6.27638
HEad  68.1238 14.5199 9.20973
LeftShoulder1  0.372713 1.89047 -20.1285
LeftArm  -2.48296 6.79678 -49.108
LeftForeArm  33.7421 2.85567 -12.4021
LeftHand  -0.0334872 5.10468 3.97067
RightShoulder  1.55657 2.26529 21.6701
RightArm  2.08086 11.843 62.6522
RightForeArm  111.354 79.4919 108.655
RightHand  -0.0185239 -4.78599 1.75538
LeftUpLeg  -8.01925 0.122318 -8.32855
LeftLeg  17.0208 4.45798 2.04305
LeftFoot  -8.0649 -0.0706774 4.16771
LeftToes  2.72522e-012 8.43823e-011 6.24977e-012
10
root  47.2041 39.3942 -40.3284 178.84 -10.1133 177.273
RightUpLeg  -15.8448 2.46879 -9.15024
RightLeg  40.356 -8.62186 -8.03629
RightFoot  -9.03647 -0.195488 6.65438
RightToes  -1.33073e-015 0 -3.6325e-017
Spine  -11.1491 -0.769792 -2.09748
Spine1  14.2115 0.281535 -5.56781
HEad  67.3533 15.3803 9.10956
LeftShoulder1  0.491445 1.39068 -19.4009
LeftArm  -2.60695 4.28081 -49.7489
LeftForeArm  33.276 1.87317 -12.2385
LeftHand  -0.0399584 4.8991 4.10774
RightShoulder  1.51578 2.06059 21.9894
RightArm  3.99125 10.1754 61.0819
RightForeArm  73.4223 79.3184 65.4679
RightHand  -0.0278217 -5.15513 0.313306
LeftUpLeg  -6.86859 0.299768 -7.84557
LeftLeg  16.8513 3.63264 1.92852
LeftFoot  -8.86183 -0.0398418 4.30439
LeftToes  2.72522e-012 8.43823e-011 6.24977e-012
11
root  47.0526 39.4202 -40.9528 178.859 -10.8436 177.703
RightUpLeg  -16.5347 4.95434 -8.39738
RightLeg  33.1609 -7.76139 -5.66079
RightFoot  -9.34543 -0.195458 7.55898
RightToes  -1.33073e-015 0 -3.6325e-017
Spine  -11.0182 -1.20288 -2.17036
Spine1  13.8374 -0.155237 -5.23383
HEad  66.58 16.1596 9.17545
LeftShoulder1  0.619401 0.857451 -19.0097
LeftArm  -2.56789 1.90574 -49.9532
LeftForeArm  32.6697 0.848884 -12.1437
LeftHand  -0.0453311 4.73056 4.1565
RightShoulder  1.48777 1.94897 22.0564
RightArm  6.70181 9.49616 60.5476
RightForeArm  44.5338 71.5272 29.8168
RightHand  -0.0271298 -5.4306 -1.95015
LeftUpLeg  -5.82586 0.611385 -7.46078
LeftLeg  16.7788 2.7288 1.69473
LeftFoot  -9.80136 -0.00524886 4.77762
LeftToes  2.72522e-012 8.43823e-011 6.24977e-012
12
root  46.8852 39.436 -41.5917 178.969 -11.3887 177.967
RightUpLeg  -16.9724 6.56599 -8.09291
RightLeg  25.1441 -4.82887 -2.68067
RightFoot  -9.11023 -0.249624 9.61017
RightToes  -1.33073e-015 0 -3.6325e-017
Spine  -10.9313 -1.4646 -2.08446
Spine1  13.3672 -0.362218 -5.09018
HEad  65.8946 16.665 9.10764
LeftShoulder1  0.735519 0.397685 -19.0033
LeftArm  -2.49047 -0.612611 -49.9375
LeftForeArm  32.1987 0.260856 -12.0757
LeftHand  -0.0454046 4.72244 4.11912
RightShoulder  1.46436 1.89281 21.8994
RightArm  10.2591 10.0826 61.0638
RightForeArm  34.2893 56.9571 14.3128
RightHand  -0.0335636 -5.15477 -4.85981
LeftUpLeg  -4.70506 0.927617 -7.19949
LeftLeg  16.4647 1.9664 1.44882
LeftFoot  -10.726 0.0382959 4.8856
LeftToes  2.72522e-012 8.43823e-011 6.24977e-012
13
root  46.7184 39.4691 -42.2063 179.221 -12.2613 178.356
RightUpLeg  -17.2774 6.92269 -7.72899
RightLeg  16.7865 -0.875658 -0.497084
RightFoot  -6.46698 -0.518332 11.108
RightToes  -1.33073e-015 0 -3.6325e-017
Spine  -10.7263 -1.78018 -1.77295
Spine1  12.6408 -0.65501 -4.84592
HEad  65.1752 16.939 8.99009
LeftShoulder1  0.810442 0.113695 -19.1087
LeftArm  -2.65406 -3.0725 -49.9929
LeftForeArm  31.9649 0.100664 -11.9175
LeftHand  -0.0533682 4.46207 4.11847
RightShoulder  1.50917 2.09713 21.6552
RightArm  16.2211 11.6648 62.2855
RightForeArm  26.409 38.1047 7.14983
RightHand  -0.0702437 -4.67882 -8.45259
LeftUpLeg  -3.7035 1.24921 -6.72452
LeftLeg  15.9593 0.833815 1.00397
LeftFoot  -11.4815 0.0754259 5.18161
LeftToes  2.72522e-012 8.43823e-011 6.24977e-012
14
root  46.509 39.4801 -42.9044 179.523 -12.4915 178.257
RightUpLeg  -17.5853 4.05739 -6.72493
RightLeg  9.42271 6.83928 0.231674
RightFoot  -4.3823 -0.785016 12.3727
RightToes  -1.33073e-015 0 -3.6325e-017
Spine  -11.0787 -1.58266 -1.21554
Spine1  12.5953 -0.308606 -5.02663
HEad  64.3121 16.9596 8.63469
LeftShoulder1  0.874379 -0.145882 -19.0484
LeftArm  -3.15621 -5.17757 -50.6188
LeftForeArm  31.0324 0.0235069 -11.6955
LeftHand  -0.0518035 4.48594 3.99669
RightShoulder  1.60123 2.41216 21.7435
RightArm  13.767 14.2717 63.1321
RightForeArm  28.668 15.4959 9.11421
RightHand  -0.15028 -4.01575 -11.5493
LeftUpLeg  -2.27036 1.25533 -6.89183
LeftLeg  14.9449 0.700351 0.947021
LeftFoot  -12.1192 0.107977 5.16263
LeftToes  2.72522e-012 8.43823e-011 6.24977e-012
15
root  46.3258 39.4237 -43.6303 179.941 -13.024 178.004
RightUpLeg  -17.9055 -0.101657 -5.03883
RightLeg  3.16258 13.7854 -1.08211
RightFoot  -5.33389 -0.754428 13.6222
RightToes  -1.33073e-015 0 -3.6325e-017
Spine  -11.2485 -1.2717 -0.836371
Spine1  12.3979 0.0997182 -5.13928
HEad  63.2919 16.9172 8.03152
LeftShoulder1  0.91078 -0.316493 -18.8463
LeftArm  -3.52495 -7.10099 -51.7399
LeftForeArm  30.1393 0.116787 -11.5034
LeftHand  -0.0503401 4.28203 3.90177
RightShoulder  1.78462 2.90623 22.5345
RightArm  -15.4707 16.6646 61.3368
RightForeArm  56.8875 -6.4077 7.39031
RightHand  -0.0944954 -4.68391 -13.1149
LeftUpLeg  -1.22497 1.13423 -7.21603
LeftLeg  14.6187 0.443478 0.962457
LeftFoot  -13.0948 0.160929 5.365
LeftToes  2.72522e-012 8.43823e-011 6.24977e-012
